<?xml version="1.0" encoding="utf-8"?>
<!DOCTYPE svg PUBLIC "-//W3C//DTD SVG 20010904//EN" "http://www.w3.org/TR/2001/REC-SVG-20010904/DTD/svg10.dtd">
<svg version="1.0" xmlns="http://www.w3.org/2000/svg" width="1500px" height="1500px" viewBox="0 0 1500 1500" preserveAspectRatio="xMidYMid meet">
 <g fill="white">
  <path d="M490.2 1251.8 c-3.5 -0.5 -8.5 -1.9 -11.1 -3.2 -2.6 -1.4 -6.4 -2.8 -8.4 -3.1 -2.1 -0.4 -5.4 -1.8 -7.3 -3.1 -1.9 -1.3 -5.4 -3.4 -7.7 -4.5 -2.3 -1.2 -5.9 -3.6 -8.1 -5.3 -4.6 -3.6 -18.9 -17.9 -22.9 -23 -4.5 -5.6 -11.4 -20 -12.7 -26.3 -0.7 -3.2 -1.8 -8.3 -2.6 -11.3 -0.8 -3 -1.4 -8 -1.4 -11.1 0 -8.5 5.6 -33.7 8.5 -37.9 1.3 -1.9 2.9 -5.4 3.6 -7.7 0.7 -2.4 2 -5 3.1 -5.9 1 -1 1.8 -2.6 1.8 -3.6 0 -2.9 -5.8 -15.5 -9.6 -21.1 -1.9 -2.7 -3.4 -5.5 -3.4 -6.2 0 -0.8 -1.1 -2.6 -2.4 -4.2 -1.3 -1.5 -3.5 -5 -5 -7.8 -1.5 -2.7 -3.7 -6.4 -4.9 -8.1 -1.2 -1.8 -3 -4.5 -4 -6 -0.9 -1.6 -2.8 -4.5 -4.2 -6.4 -1.3 -1.9 -4 -5.7 -5.9 -8.5 -5.7 -8.2 -9.4 -12.8 -23.8 -29.3 -12.6 -14.5 -17.4 -19 -31.3 -30.1 -2.7 -2.2 -6.4 -5.1 -8.1 -6.5 -1.6 -1.4 -5 -3.2 -7.5 -4.2 -2.4 -1 -5.5 -2.6 -6.8 -3.6 -3.2 -2.4 -8.2 -3.7 -17.6 -4.4 -10.9 -0.8 -18.1 0.7 -26.1 5.5 -11.1 6.7 -27 23.6 -32.6 34.5 -1.1 2.2 -2.7 4.6 -3.5 5.5 -0.9 0.8 -2.3 3.3 -3.3 5.5 -1 2.3 -3 5.6 -4.4 7.5 -1.4 1.9 -2.8 5.1 -3.2 7 -0.3 2 -0.8 4.4 -1 5.3 -0.3 1.1 2.3 4.6 7.3 10.1 7.8 8.4 13.2 15.1 17.8 21.7 3.6 5.2 13.5 25.4 13.5 27.4 0 1 1.5 6 3.2 11 3.2 8.9 3.3 9.4 3.2 26.1 0 16.5 -0.1 17.3 -3.2 26.3 -1.8 5.1 -3.2 10 -3.2 10.9 0 2 -9.6 22 -11 22.8 -0.6 0.4 -2 2.5 -3.1 4.8 -1.2 2.3 -3.6 5.9 -5.3 8 -6.2 7.5 -20.2 21.3 -23.9 23.6 -2 1.2 -3.7 2.6 -3.7 3 0 0.5 -2.6 2.2 -5.9 3.9 -3.2 1.8 -6.4 3.8 -7 4.6 -0.7 0.8 -3.6 2.3 -6.4 3.2 -2.9 0.9 -6.4 2.5 -7.8 3.5 -2.7 1.9 -3.6 2.1 -22.2 6.4 -12.5 2.9 -27.1 3.3 -35.7 1.1 -3 -0.8 -9.3 -2.2 -14 -3.1 -4.7 -1 -11 -3 -14 -4.5 -3 -1.6 -7.5 -3.8 -10 -5 -10.1 -4.8 -16.7 -9.3 -25 -17.2 -2.2 -2 -4.5 -4 -5.3 -4.5 -2 -1.3 -17 -18.6 -19.2 -22.3 -2.7 -4.4 -9 -15.7 -10.8 -19.5 -2.1 -4.2 -6.5 -17.8 -8.3 -25.5 -2.2 -9.2 -1.5 -39.5 1 -46 1 -2.5 2.9 -8.1 4.2 -12.5 1.4 -4.4 3.5 -9.6 4.8 -11.5 1.3 -1.9 2.7 -4.6 3.1 -6 0.4 -1.4 1.9 -4.1 3.4 -6 1.5 -1.9 3.5 -4.8 4.6 -6.5 2.2 -3.6 6.6 -9.2 11.6 -14.9 3.5 -3.9 6.6 -11.7 5.4 -13.6 -0.3 -0.5 -1.2 -6 -2.1 -12.2 -0.8 -6.2 -2.4 -15 -3.5 -19.4 -5.2 -22.1 -5.2 -74.7 0 -95.4 1.1 -4.1 2.7 -12.4 3.5 -18.3 0.9 -5.9 2.5 -12.6 3.6 -14.8 1.2 -2.2 2.8 -7.2 3.6 -11.2 0.9 -3.9 2.7 -9 3.9 -11.2 1.3 -2.2 3 -6.6 4 -9.7 0.9 -3.1 2.5 -6.7 3.5 -8.1 1 -1.3 2.7 -4.6 3.8 -7.4 1.1 -2.8 3.1 -6.6 4.4 -8.4 1.4 -1.9 2.9 -4.4 3.2 -5.6 0.4 -1.2 1.7 -3.4 2.9 -4.9 1.2 -1.5 3.3 -4.7 4.7 -7 3.7 -6.2 8 -12.4 11.8 -16.9 1.8 -2.2 4.8 -5.7 6.5 -7.8 10.7 -12.8 29.6 -31.1 42.2 -40.7 2.5 -1.9 6 -4.7 7.8 -6.1 1.7 -1.4 5.6 -3.8 8.5 -5.4 2.8 -1.5 5.2 -3.1 5.2 -3.5 0 -0.4 2.6 -2 5.7 -3.5 3.2 -1.5 6.7 -3.5 7.8 -4.5 1.1 -0.9 3.6 -2.3 5.6 -2.9 2 -0.6 5.1 -2.3 7 -3.7 1.8 -1.3 5.5 -3.1 8.1 -3.9 2.6 -0.7 6.6 -2.5 9 -3.9 2.4 -1.3 7.1 -3.2 10.5 -4 3.5 -0.9 7.8 -2.5 9.7 -3.6 1.8 -1.1 6.9 -2.7 11.2 -3.6 4.4 -0.8 10.6 -2.5 13.9 -3.8 3.3 -1.4 10.4 -3 15.8 -3.6 5.4 -0.6 14.2 -2.2 19.5 -3.6 14.6 -3.6 35.4 -4.7 74.2 -4.1 32.7 0.6 43.5 1.5 51.4 4.6 1.6 0.6 7.6 1.8 13.4 2.7 5.7 0.9 13.7 2.8 17.6 4.4 3.9 1.5 9.1 3.1 11.6 3.5 2.5 0.4 7 2 10 3.6 3 1.5 7.5 3.3 10 3.9 2.5 0.6 6.5 2.4 9 4 2.5 1.5 6.3 3.3 8.5 4 2.2 0.7 4.9 2.1 6 3.1 1.1 1 3.8 2.5 5.9 3.4 2.1 0.9 6.1 3.2 8.8 5.1 2.8 1.9 5.5 3.4 6 3.4 0.6 0 2.6 1.4 4.5 3.1 3.3 2.8 3.7 2.9 5.2 1.4 1.4 -1.4 1.6 -6.8 1.7 -50.3 0.2 -50.7 1.1 -68.7 4.4 -84.4 1 -5.1 2.6 -15.7 3.4 -23.5 0.9 -7.9 2.5 -17.1 3.7 -20.5 1.1 -3.5 2.9 -11.1 3.9 -16.9 0.9 -5.8 2.7 -12.8 3.9 -15.5 1.2 -2.7 2.8 -8.1 3.6 -12.1 0.7 -3.9 2.5 -9.3 3.8 -12 1.4 -2.6 3 -7.3 3.6 -10.3 0.7 -3 2.2 -7.3 3.5 -9.5 1.3 -2.2 3.1 -6.5 4 -9.5 0.9 -3 2.7 -7.1 4 -9.1 1.3 -2 2.9 -5.3 3.4 -7.3 0.6 -2.1 2.4 -5.8 4 -8.4 1.6 -2.6 3.5 -6.3 4.2 -8.2 0.7 -1.9 2.1 -4.4 3.1 -5.5 1 -1.1 2.7 -4.1 3.7 -6.6 1.1 -2.6 2.5 -5 3.1 -5.4 0.6 -0.3 2.3 -3 3.7 -5.8 1.5 -2.9 3.6 -6.2 4.7 -7.5 1.1 -1.2 3 -3.7 4.1 -5.6 11.2 -18.1 35.3 -44.7 60.1 -66.3 16.9 -14.7 26.3 -22 32.6 -25.3 1.3 -0.7 3.9 -2.6 5.7 -4.1 1.8 -1.6 3.8 -2.9 4.4 -2.9 0.6 0 2.6 -1.2 4.5 -2.6 1.8 -1.4 5.2 -3.4 7.6 -4.4 2.3 -1 5.7 -3 7.6 -4.4 1.9 -1.4 5 -3.1 7 -3.7 2 -0.7 5.2 -2.2 7.1 -3.5 1.9 -1.3 6.5 -3 10.1 -3.8 3.6 -0.9 9 -2.7 12 -4 3 -1.4 9 -3 13.3 -3.6 4.3 -0.7 11.3 -2.3 15.4 -3.6 4.7 -1.6 13 -3.1 21.6 -4 7.8 -0.7 20.2 -2.1 27.6 -3 16.9 -2 34.9 -1.5 63 1.9 14.7 1.8 22.3 3.2 27 5 3.6 1.4 9.2 3 12.5 3.6 3.2 0.6 8.4 2.4 11.5 4 3.1 1.6 7.2 3.2 9.2 3.6 2 0.4 5.1 1.8 6.9 3.1 1.8 1.3 5.3 3.1 7.8 4 2.5 1 5.7 2.7 7.1 4 1.4 1.2 4.2 2.9 6.4 3.8 2.1 0.9 5.4 2.9 7.2 4.6 1.9 1.6 3.9 3 4.4 3 1.3 0 23.1 19.3 30.1 26.6 8.6 9.1 19.9 22.3 19.9 23.4 0 0.5 1.3 2.4 2.9 4.2 1.5 1.8 3.6 4.9 4.6 6.8 0.9 1.9 2.6 4.4 3.6 5.6 2 2.1 5.8 8.8 11 19.4 1.7 3.6 4 7.5 5 8.8 0.9 1.3 2 3.5 2.4 5.1 1 4.6 6.4 10.1 12.9 13.2 9.8 4.7 16.5 8.5 18.9 10.6 1.2 1 3.6 2.8 5.2 3.8 9.9 6.1 27.1 23.9 31.5 32.5 1 2 2.6 4.3 3.5 5 1 0.8 2.8 3.9 4.1 6.9 1.4 3.1 3.1 6.2 3.9 7.1 0.7 0.8 2.1 4.4 3 8 0.9 3.6 2.5 8.4 3.6 10.6 3 6.8 4.2 17.5 3.7 34.4 -0.5 13.8 -0.8 16.2 -3.2 22.2 -1.5 3.6 -3.3 9.2 -4.2 12.5 -0.8 3.2 -2.3 7 -3.4 8.5 -1.1 1.5 -3.1 5.1 -4.5 8 -1.4 2.9 -3.5 6.8 -4.8 8.6 -4.1 6.2 -18 21.7 -23.6 26.4 -3.1 2.6 -7.2 6 -9.1 7.6 -1.9 1.6 -5.3 3.9 -7.6 5 -2.2 1.1 -4.6 2.7 -5.3 3.6 -0.7 0.8 -2.9 2 -4.9 2.7 -2 0.6 -5.7 2.3 -8.2 3.7 -2.5 1.4 -9 3.6 -14.5 4.9 -5.5 1.3 -13.1 3 -17 3.9 -9.1 2.1 -20.8 1.4 -33.9 -2 -5.4 -1.4 -10.8 -2.6 -12 -2.6 -1.3 0 -4.5 -1.1 -7.2 -2.5 -2.7 -1.4 -7.5 -3.7 -10.7 -5 -3.2 -1.3 -7.2 -3.5 -8.8 -4.9 -1.7 -1.5 -3.7 -2.6 -4.4 -2.6 -2 0 -9.4 -6.3 -20.3 -17.1 -12.7 -12.7 -14.6 -14.9 -16.7 -19 -1 -1.9 -3 -5 -4.6 -6.9 -1.5 -1.9 -3 -4.6 -3.4 -6 -0.4 -1.4 -2 -4.5 -3.5 -7 -1.6 -2.5 -3.4 -6.7 -4 -9.5 -0.6 -2.7 -2.3 -8.4 -3.7 -12.5 -2.5 -7 -2.7 -8.7 -2.7 -25 -0.1 -16.5 0.1 -17.9 2.6 -25 1.4 -4.1 3.2 -9.9 3.8 -12.8 0.7 -2.9 2.2 -6.7 3.5 -8.6 3.3 -4.8 4.2 -11.2 1.9 -13.7 -0.9 -1 -2.2 -1.9 -2.8 -1.9 -0.6 0 -2.7 -1.3 -4.7 -2.9 -1.9 -1.6 -6.2 -3.8 -9.6 -4.9 -3.3 -1.1 -7.5 -2.8 -9.3 -3.7 -2 -1 -6.7 -2 -11.5 -2.2 -7.2 -0.5 -8.8 -0.3 -14.5 2.1 -3.6 1.5 -7.8 3.2 -9.5 3.8 -9.2 3.3 -28.4 21.5 -33.5 31.8 -1.2 2.5 -3.1 5.5 -4.2 6.6 -1.1 1.2 -2.8 5.3 -3.8 9 -1 3.8 -2.6 8.9 -3.6 11.4 -2.5 6.3 -3.2 35.7 -1.1 45 4 17.8 6.2 25.1 9.2 31.5 1.9 3.9 4.1 8.6 5 10.5 0.8 1.9 2.6 5.1 4 7 8.4 12 10.8 15 18 23.3 4.4 5.1 10.4 11.7 13.4 14.7 2.9 3 6.4 7.1 7.7 9.2 1.3 2 2.8 3.9 3.4 4.3 0.6 0.4 2.3 3.2 3.9 6.3 1.6 3.1 3.8 6.6 5 7.6 1.2 1.1 2.1 2.5 2.1 3.2 0 0.7 1.7 4.6 3.9 8.7 2.1 4 4.2 8.9 4.6 10.8 0.4 1.9 2 6.1 3.5 9.4 1.7 3.5 3.5 9.9 4.4 15.5 2.4 14.4 5.7 24.2 8.8 26 2.5 1.3 2.8 1.2 7.2 -2.5 7.8 -6.9 11.3 -9.5 16 -12.1 2.5 -1.4 4.6 -2.9 4.6 -3.3 0 -0.4 1.9 -1.8 4.3 -3.1 2.3 -1.3 5.6 -3.4 7.3 -4.7 1.7 -1.2 4.6 -2.8 6.5 -3.4 1.9 -0.7 4.3 -2 5.5 -3 1.1 -1.1 4.9 -3 8.4 -4.4 3.5 -1.4 7 -3.1 7.9 -3.9 0.9 -0.8 4.1 -2.2 7.1 -3.1 3 -0.9 7.6 -2.7 10.1 -4 2.6 -1.4 7.7 -3.2 11.5 -4 3.8 -0.9 9.4 -2.6 12.4 -4 3 -1.3 9.3 -2.9 14 -3.5 4.7 -0.6 11.4 -1.9 15 -3 12.1 -3.5 19.4 -4.2 54 -4.7 39.4 -0.6 58.1 0.5 73.2 4.1 5.7 1.4 14.6 3 19.8 3.6 5.2 0.7 12.2 2.3 15.5 3.6 3.3 1.3 9.4 3 13.6 3.8 4.2 0.8 9.9 2.6 12.5 4 2.7 1.4 7 3 9.6 3.6 2.6 0.5 7.7 2.6 11.4 4.5 3.6 1.9 7.3 3.5 8.3 3.5 0.9 0 3.3 1.1 5.3 2.5 2 1.3 6 3.6 9 5 9.2 4.6 16.1 8.4 18.2 10.4 1.2 1 3.9 2.8 6.1 3.9 2.2 1.1 5.8 3.4 8 5 9 6.9 12.8 9.9 16.8 13.2 5 4.2 27.8 27.1 32.4 32.6 9.8 11.7 19.3 24.6 19.3 26.3 0 0.5 1.4 2.6 3 4.5 1.7 1.8 3.7 5.1 4.6 7.2 0.9 2.1 2.6 5.2 3.9 6.8 1.2 1.7 2.8 4.8 3.4 6.8 0.7 2 2.3 5.3 3.6 7.2 1.3 2 3.1 5.9 3.9 8.7 0.9 2.9 2.5 6.7 3.6 8.6 1.1 1.9 2.9 7.1 4.1 11.6 1.1 4.5 2.9 10.1 4 12.4 1 2.3 2.6 9 3.5 15 0.8 5.9 2.4 14.1 3.5 18.2 5.1 19.9 5.1 71.6 -0.1 93.3 -2.1 8.9 -5.3 29.4 -5.3 34.3 -0.1 5.2 1.3 8.5 5.1 12.6 5.8 6 9.7 11 12.2 15.7 1.3 2.3 2.8 4.2 3.2 4.2 0.5 0 2 2.5 3.3 5.5 1.4 3 3.6 7.2 4.9 9.3 1.4 2 2.8 5.5 3.2 7.7 0.4 2.2 2 7.4 3.7 11.5 2.7 6.9 3 8.7 3.5 23 0.5 16.1 -0.7 28 -3.3 33 -0.8 1.5 -2.4 6.2 -3.5 10.5 -1.1 4.2 -3.1 9.1 -4.4 10.9 -1.3 1.7 -2.8 4.6 -3.4 6.4 -0.6 1.8 -2.4 5 -4 7 -1.6 2 -3.7 5.1 -4.6 6.9 -2.6 5.2 -31.6 33.3 -34.4 33.3 -0.5 0 -3.4 1.6 -6.3 3.6 -3 2 -7.1 4.2 -9.1 5 -2.1 0.7 -5.7 2.4 -8 3.8 -2.4 1.3 -7.9 3.1 -12.3 4 -4.4 0.8 -10.7 2.2 -14 3 -8.4 2.2 -23.8 2.1 -33.3 -0.3 -4.3 -1.1 -10.6 -2.5 -14.2 -3.1 -3.6 -0.6 -8.1 -2.2 -10 -3.4 -1.9 -1.3 -5.8 -3.1 -8.7 -4 -2.8 -0.9 -5.7 -2.4 -6.4 -3.2 -0.7 -0.9 -3.5 -2.7 -6.3 -4.1 -6.5 -3.3 -10.8 -6.8 -21.9 -18 -13.8 -13.8 -18.4 -19.9 -24.2 -32.2 -1.5 -3 -3.5 -6.5 -4.5 -7.8 -1 -1.3 -2.4 -4.9 -3 -7.9 -0.7 -3.1 -2.4 -8.8 -3.8 -12.7 -2.5 -6.9 -2.7 -8.1 -2.6 -25.7 0 -17.4 0.2 -18.9 2.6 -25 1.4 -3.6 3.1 -9 3.8 -12 0.7 -3 2.3 -7.1 3.6 -9 1.3 -1.9 3 -5.5 3.9 -8 0.9 -2.4 2.5 -5.5 3.7 -6.7 1.2 -1.3 3.1 -3.8 4.2 -5.7 3.5 -5.6 8.2 -11.5 15.7 -19.4 6.9 -7.4 7.1 -7.6 6.5 -11.6 -0.4 -2.3 -1.6 -5.2 -2.7 -6.6 -1.1 -1.4 -3.1 -4.9 -4.5 -7.9 -1.4 -3 -3.4 -6.6 -4.5 -8 -2.2 -2.8 -4.9 -6.7 -10.3 -14.6 -1.8 -2.7 -7 -8.7 -11.5 -13.1 -6.5 -6.6 -9.9 -9.1 -17.5 -12.8 -9 -4.5 -9.6 -4.7 -18.4 -4.7 -8.3 0 -9.9 0.3 -17.4 3.6 -4.6 1.9 -9.3 4.1 -10.5 4.8 -7 4 -12.2 7.4 -14.8 9.7 -1.6 1.5 -3.8 3.1 -4.7 3.6 -3.8 2 -20.8 18.7 -30.7 30.1 -13.4 15.5 -19 22.7 -23.8 30.7 -1 1.6 -3 4.3 -4.4 6 -1.5 1.7 -3.6 4.9 -4.8 7.1 -3.3 6 -8.7 14.7 -10.9 17.5 -1 1.4 -2.9 4.7 -4.1 7.5 -1.2 2.7 -3 5.9 -4.1 7 -2.5 2.8 -4.2 9.6 -3.4 14.4 0.4 2.2 2.1 6.4 4 9.2 1.8 2.9 3.6 6.6 4 8.3 0.3 1.7 2 6.3 3.7 10.1 3.1 6.9 3.1 7.3 3.5 26 l0.4 19 -3 5.5 c-1.6 3 -3.7 8 -4.5 11.1 -0.9 3.1 -3 7.3 -4.7 9.4 -1.6 2.1 -3 4.3 -3 4.9 0 1.4 -7.2 10.3 -12.7 15.9 -5.2 5.2 -13.4 11.5 -20.2 15.5 -3.1 1.9 -6.3 4 -7.1 4.7 -0.8 0.7 -3.5 1.8 -6 2.5 -2.5 0.7 -6.9 2.3 -9.8 3.7 -2.9 1.4 -8.5 2.9 -12.5 3.5 -12.8 1.8 -45 -0.5 -57.4 -4.1 -3.4 -1 -15.7 -2.3 -40.2 -4.1 -7.9 -0.7 -18 -1.8 -22.3 -2.5 -26.5 -4.7 -128.9 -6.9 -209.3 -4.5 -38 1.1 -52.7 2.1 -72.5 4.9 -7.4 1.1 -21.4 2.5 -31 3.1 -10 0.6 -22.6 2.2 -29.5 3.5 -21.1 4.3 -43.7 5.6 -59.3 3.3z m523.2 -58.9 c6.5 -1.3 10.7 -4.6 16 -12.7 3.8 -5.8 4.6 -7.9 5.6 -15.2 1.4 -10.2 1.5 -21.6 0.1 -26.8 -1.4 -5.2 -7.3 -11.2 -15.4 -15.6 -6.3 -3.5 -7.8 -3.9 -23.1 -5.6 -8.9 -1.1 -19.2 -2.6 -22.7 -3.4 -6.3 -1.5 -16.3 -2.5 -45.2 -4.6 -8.1 -0.6 -18.7 -1.7 -23.5 -2.5 -45.3 -7.4 -260.8 -7.4 -307.6 0 -5 0.8 -15.8 1.9 -24.1 2.5 -28.4 2 -39 3.1 -47.5 5 -4.7 1 -13.7 2.4 -20 3 -6.7 0.7 -12.8 1.8 -14.7 2.8 -14.6 7.8 -15.5 8.5 -21 18.7 -3.6 6.7 -3.8 7.4 -3.8 16.5 0 8.5 0.4 10.4 3.5 18 6.4 16 14 21 31.9 21 11.7 0 39.8 -2.8 51 -5.1 9.4 -1.9 19.8 -3 47.4 -4.9 8.1 -0.6 19.8 -1.7 26 -2.5 21.9 -2.9 38.8 -3.6 101.2 -4.2 61.9 -0.5 121.4 0.6 139 2.7 28 3.3 35.9 4 52.5 5 10.1 0.6 21.8 1.8 26 2.5 20.2 3.8 52.7 7.5 59.5 6.8 2.2 -0.3 6.2 -0.9 8.9 -1.4z m-851.4 -5.9 c12.5 -4.4 20.4 -9.6 27.2 -18 2.6 -3.3 4.8 -6.3 4.8 -6.6 0 -0.3 1.6 -4 3.6 -8.2 3 -6.3 3.8 -9.3 4.6 -18 1.3 -13.9 -0.2 -28.2 -3.5 -34.8 -1.3 -2.7 -2.9 -6.5 -3.6 -8.4 -1.5 -4.6 -14.2 -18.5 -19.4 -21.2 -2.3 -1.1 -5.3 -2.9 -6.7 -3.9 -3.7 -2.7 -19 -5.3 -31 -5.3 -13.2 0 -28.1 2.8 -31.8 5.9 -1.5 1.2 -4.4 3 -6.5 4 -5.6 2.6 -14.9 13.4 -19.7 22.8 -3.9 7.6 -4.3 9.1 -5.3 20.1 -1.4 16.1 0.2 33.2 3.6 38.5 1.3 2 3.1 5.6 4.1 8.1 1.6 4 3.4 6.4 9.3 12.3 4.8 4.7 12.6 9.3 21.3 12.5 17.1 6.1 31.8 6.2 49 0.2z m1214.5 3 c14 -4 25.5 -9.4 30.7 -14.8 5.1 -5.1 8.5 -10 12.3 -17.6 4.1 -8.1 4.7 -10.2 5.7 -19.7 1.3 -12.9 -0.1 -32.1 -2.7 -37.1 -1 -1.8 -2.9 -5.5 -4.2 -8.3 -3.5 -7 -12.7 -17.1 -18.2 -20 -2.5 -1.4 -5.7 -3.4 -7.1 -4.5 -1.8 -1.4 -6.4 -2.6 -16.6 -4.2 -14 -2.2 -14.2 -2.2 -27 -0.4 -16.1 2.2 -23.2 5.4 -33.1 14.7 -7.5 7.1 -8.7 8.8 -13.2 18.4 -3.6 7.6 -4.4 10.5 -5.3 19.2 -1.5 14.1 0.1 30.7 3.4 36.6 1.4 2.3 3.2 6.2 4.1 8.7 3.2 8.4 17.8 21.5 27.3 24.3 2.7 0.8 6.7 2.2 8.9 3.2 7.2 3.1 26.3 3.9 35 1.5z m-895 -128 c4.9 -2.5 11.5 -3.7 28 -5.1 7.2 -0.5 17.5 -1.9 22.9 -3 9.9 -1.9 19.6 -2.9 50.1 -4.9 21 -1.4 45.6 -4.5 49.1 -6.2 4.6 -2.2 4.9 -3.7 3.6 -14.5 -0.6 -5.4 -1.8 -13.4 -2.6 -17.8 -0.8 -4.5 -2 -12.7 -2.5 -18.4 -0.6 -5.6 -2.2 -13.5 -3.5 -17.4 -1.4 -4 -3.2 -11.2 -4.2 -16.2 -0.9 -4.9 -2.5 -10.7 -3.5 -12.8 -1.1 -2.1 -2.7 -7 -3.5 -11 -0.9 -3.9 -2.7 -9 -3.9 -11.2 -1.3 -2.3 -3.1 -7 -4 -10.5 -0.9 -3.5 -2.7 -8.2 -4 -10.5 -1.3 -2.2 -2.9 -6 -3.5 -8.5 -0.6 -2.5 -2.3 -6.1 -3.6 -8.2 -1.4 -2 -3.2 -5.7 -3.9 -8.2 -0.8 -2.5 -2.5 -6.1 -3.8 -7.9 -1.4 -1.7 -3 -5 -3.7 -7.2 -0.7 -2.2 -2.3 -5.4 -3.5 -7.1 -1.3 -1.6 -3.1 -4.8 -4 -7 -0.9 -2.1 -2.7 -5 -3.9 -6.4 -1.3 -1.4 -3.1 -3.9 -3.9 -5.6 -0.9 -1.7 -2.3 -3.7 -3.2 -4.4 -0.9 -0.8 -2.5 -3 -3.5 -5 -2.5 -4.9 -9.1 -13.3 -18.7 -23.6 -2.1 -2.3 -4.5 -5 -5.4 -6 -2.7 -3.3 -23.3 -22.2 -26.9 -24.9 -1.9 -1.3 -5.5 -3.8 -8 -5.4 -2.5 -1.6 -5.8 -4 -7.4 -5.3 -4.1 -3.2 -10.8 -7.1 -19.6 -11.4 -4.1 -1.9 -8.2 -4.2 -9 -4.9 -0.8 -0.7 -4.2 -2.1 -7.5 -3 -3.3 -1 -7.8 -2.8 -10 -4.1 -2.2 -1.2 -6.9 -2.8 -10.4 -3.4 -3.6 -0.6 -9.2 -2.2 -12.6 -3.5 -7.6 -2.8 -9.3 -3.1 -34.5 -5.5 -26.2 -2.5 -33.9 -2.5 -65 0.5 -19 1.8 -27.6 3 -33.8 4.9 -4.5 1.4 -11.9 3 -16.4 3.6 -4.5 0.6 -10.7 2.2 -13.8 3.5 -3.1 1.3 -8.7 3.1 -12.4 3.9 -3.7 0.9 -8.6 2.7 -10.9 4 -2.3 1.3 -6.7 3.1 -9.8 4 -3.1 0.9 -6.2 2.2 -6.8 3 -0.7 0.8 -3.4 2.3 -5.9 3.2 -2.6 0.9 -6.7 3.2 -9.1 5.1 -2.4 1.8 -5 3.3 -5.7 3.3 -0.7 0 -2.8 1.3 -4.6 2.9 -1.8 1.5 -4.4 3.4 -5.8 4.1 -7.5 4 -34.6 30.7 -45.8 45.2 -5.8 7.6 -10.2 14.2 -12.1 18.3 -1 2.2 -2.5 4.6 -3.4 5.4 -0.9 0.7 -2.6 3.8 -3.7 6.8 -1.1 3.1 -3 6.7 -4.1 8.1 -1 1.4 -2.7 5 -3.5 8.1 -0.9 3.1 -2.8 7.8 -4.1 10.4 -1.3 2.7 -3.1 8.3 -3.9 12.5 -0.8 4.2 -2.6 11.2 -4 15.6 -3.6 11.6 -5.1 39.5 -3.6 68 0.7 11.6 1.8 23.3 2.5 26.1 2.2 8.2 2.8 8.3 31.2 7.6 l24 -0.6 2.5 -5.2 c1.4 -2.8 3.2 -6 4.1 -7 1 -1 2.5 -3.4 3.5 -5.4 6.4 -12.3 24.7 -35.1 36.8 -45.8 3.4 -2.9 6.8 -6.1 7.6 -7 0.8 -1 2.9 -2.6 4.5 -3.6 1.7 -1 3.5 -2.6 4.2 -3.5 0.7 -1 2.7 -2.3 4.5 -3.1 1.8 -0.7 5.5 -2.8 8.2 -4.6 2.6 -1.8 5.6 -3.3 6.6 -3.3 1 0 4.3 -1.3 7.3 -2.9 6 -3.1 10.7 -4.3 25.5 -6.2 15.4 -2 42.2 0.8 51 5.4 2.6 1.3 7.2 3.2 10.3 4.1 3.1 0.8 6.2 2.3 7 3.2 0.7 0.9 3.6 2.7 6.4 4 4.8 2.4 8.5 4.8 21 14.3 7.1 5.4 26.9 25.1 34.7 34.6 3.2 3.9 6.9 8.4 8.3 10 9.3 10.9 11.5 13.7 11.5 14.4 0 0.5 1.5 2.7 3.3 4.9 1.7 2.2 4 5.3 5 6.8 2.6 4.3 6.2 9.5 9.1 13.1 1.5 1.7 3.5 5.1 4.6 7.6 1.1 2.4 2.7 5 3.6 5.8 0.8 0.7 2.9 3.8 4.5 6.8 7.5 13.9 10.6 18.7 13.8 20.8 4.1 2.8 4.7 2.8 9.6 0.3z m553 -7.2 c1.7 -3.1 3.7 -6.4 4.7 -7.4 0.9 -1.1 2.3 -3.6 3.2 -5.8 0.9 -2.1 2.9 -5.4 4.6 -7.2 1.6 -1.9 3 -3.9 3 -4.4 0 -1 6.6 -11.3 11.5 -18 2.6 -3.5 5 -6.9 10.2 -14.5 2.6 -3.8 5.4 -7.3 12.2 -15.5 23.7 -28.2 48.5 -50.6 65.1 -58.7 3 -1.4 6.6 -3.5 7.9 -4.5 1.3 -1 4.9 -2.5 8 -3.4 3.1 -0.8 8.1 -2.6 11.1 -3.9 13.1 -5.7 51.2 -6 61.9 -0.6 2 1 6.8 2.8 10.8 4 4 1.2 7.5 2.6 7.8 3.2 0.4 0.5 3.2 2.3 6.3 4 12.2 6.5 18.4 11.3 32.1 25.1 13.6 13.6 15.8 16.3 24 28.8 1.7 2.5 4 5.7 5.2 7.2 1.3 1.5 2.8 4.1 3.6 5.8 0.7 1.7 2.2 4.3 3.3 5.8 1.2 1.5 3.1 4.2 4.3 6.1 l2.2 3.4 24.5 0 c17 0 25.2 -0.3 26.7 -1.2 2.6 -1.3 4 -5.7 5.2 -16.8 3.2 -26.6 1.9 -69.5 -2.4 -83 -1.3 -4.3 -3.1 -11.4 -4 -15.8 -0.8 -4.3 -2.5 -9.9 -3.8 -12.4 -1.3 -2.5 -2.9 -6.8 -3.6 -9.6 -0.7 -2.7 -2.3 -6.6 -3.6 -8.5 -1.3 -1.9 -3.1 -5.4 -3.9 -7.8 -0.8 -2.3 -2.6 -5.7 -4 -7.5 -1.3 -1.7 -3.1 -4.8 -4 -6.7 -2.7 -5.8 -11.5 -18 -18.6 -25.9 -12.6 -14 -17.6 -19.1 -26.4 -26.9 -9.4 -8.2 -11.7 -9.9 -19.6 -14.7 -1.8 -1.1 -5.5 -3.5 -8.3 -5.3 -2.8 -1.8 -7.2 -4.2 -9.8 -5.4 -2.7 -1.1 -5.4 -2.6 -6 -3.4 -0.6 -0.8 -3.7 -2.1 -6.8 -3 -3.1 -0.9 -7.5 -2.7 -9.8 -4 -2.3 -1.3 -7.2 -3.1 -10.9 -4 -3.7 -0.8 -9.3 -2.6 -12.4 -3.9 -3.1 -1.3 -9.3 -2.9 -13.8 -3.5 -4.5 -0.6 -11.9 -2.2 -16.4 -3.6 -6.1 -1.8 -15 -3.1 -33.3 -4.9 -30.4 -3 -41.8 -3.1 -67.3 -0.5 -24.8 2.5 -26.7 2.8 -32.2 5.1 -2.5 1 -8.4 2.8 -13.1 3.8 -4.8 1.1 -10.2 2.9 -12 4 -1.9 1.1 -6 2.7 -9.1 3.6 -3.1 0.9 -6.8 2.5 -8.1 3.5 -1.3 1.1 -4.9 2.8 -7.9 4 -3.1 1.1 -6.3 2.9 -7.2 3.9 -1 1.1 -3.2 2.5 -4.9 3.2 -1.8 0.7 -4.3 2.2 -5.7 3.4 -1.4 1.2 -4.3 3.2 -6.5 4.4 -4.5 2.6 -6.7 4.4 -19.6 15.4 -15.7 13.5 -31.3 30.5 -40.6 44.2 -1.5 2.2 -4 5.5 -5.5 7.3 -1.5 1.8 -2.8 3.9 -2.8 4.6 0 0.7 -1.2 2.6 -2.7 4.2 -1.4 1.5 -3.5 4.9 -4.6 7.4 -1.1 2.5 -2.8 5.4 -3.7 6.5 -1 1.1 -2.8 4.4 -4 7.4 -1.1 3 -2.9 6.5 -4 7.8 -1 1.3 -2.7 4.8 -3.6 7.6 -0.9 2.9 -2.7 6.8 -4 8.7 -1.2 1.9 -2.8 5.5 -3.4 7.9 -0.6 2.4 -2.4 6.7 -4 9.5 -1.5 2.8 -3.1 6.7 -3.5 8.6 -0.4 1.9 -2 6.2 -3.6 9.6 -1.6 3.3 -3.3 8.4 -3.9 11.4 -0.6 2.9 -2.1 7.7 -3.4 10.7 -1.4 2.9 -3.2 9.2 -4.1 14 -0.9 4.9 -2.7 12 -4 15.8 -1.3 3.9 -2.9 11.7 -3.5 17.5 -0.6 5.8 -2 15 -3.1 20.5 -1 5.5 -2.2 13.9 -2.6 18.8 -0.7 10.5 0.2 12.1 8.1 13.6 7.6 1.5 30.1 3.9 47.1 5.1 32.4 2.2 41.4 3.1 51 4.9 5.5 1.1 17.8 2.7 27.3 3.5 11.8 1.1 18.7 2.2 21.5 3.4 3.5 1.6 4.8 1.7 8.2 0.8 3.4 -1 4.4 -2 7 -6.8z m-232.6 -14.2 c3.1 -1.6 2.8 -0.4 6.6 -33.6 2.7 -24.8 3.5 -29.8 5.6 -35.7 1.1 -3.2 2.6 -10.2 3.4 -15.6 0.9 -5.4 2.4 -11.6 3.6 -13.8 1.1 -2.3 2.7 -7.5 3.5 -11.7 0.8 -4.2 2.6 -10.1 3.9 -13.1 1.4 -3 3.2 -8.3 4 -11.8 0.8 -3.6 2.6 -8.3 3.9 -10.6 1.4 -2.3 3 -6.4 3.7 -9.2 0.7 -2.7 2.5 -7.3 4.1 -10.1 1.5 -2.8 2.8 -5.7 2.8 -6.5 0 -0.8 1.7 -5 3.9 -9.4 2.1 -4.4 4.8 -10 6 -12.5 1.2 -2.5 2.8 -5.6 3.6 -7 0.8 -1.4 2.4 -4.5 3.5 -7 1.1 -2.5 2.9 -6.1 4 -8 9 -16.3 10.1 -22.9 10.2 -57.5 0 -25.4 -1.3 -38.3 -4.6 -46.3 -1.3 -3.1 -2.9 -8.2 -3.6 -11.2 -0.7 -3 -2.2 -7.1 -3.4 -9 -1.3 -1.9 -3.5 -6 -4.9 -9 -4 -8.2 -8.2 -13.9 -16.8 -22.8 -6.8 -7.1 -19.9 -22.3 -19.9 -23.2 0 -0.5 -1.3 -2.4 -2.8 -4.2 -1.6 -1.8 -3.9 -5.2 -5.2 -7.6 -1.3 -2.3 -2.8 -4.2 -3.2 -4.2 -0.5 0 -2.1 -2.8 -3.7 -6.2 -1.5 -3.5 -3.5 -6.9 -4.4 -7.6 -0.9 -0.8 -2.4 -3.7 -3.3 -6.5 -0.9 -2.9 -2.8 -6.8 -4 -8.7 -1.3 -1.9 -2.8 -6 -3.5 -9 -0.6 -3 -2.2 -7.6 -3.5 -10.1 -1.4 -2.9 -3.3 -10.4 -4.9 -20 -1.5 -8.5 -3.1 -17.4 -3.5 -19.9 -1.5 -7.6 -1.1 -28.9 0.6 -36.5 0.8 -3.8 2.4 -11.6 3.4 -17.3 1.2 -6 2.9 -12 4.4 -14.5 1.3 -2.3 2.7 -5.8 3.1 -7.7 0.4 -1.9 2.1 -6 4 -9 1.8 -3 3.6 -6.6 4 -8 0.4 -1.4 1.9 -4.1 3.4 -6 1.5 -1.9 3.4 -4.6 4.1 -6 4.5 -8.4 21.4 -27.2 29.5 -32.7 1.9 -1.3 3.5 -2.7 3.5 -3.2 0 -0.4 2.2 -2 4.8 -3.4 2.6 -1.4 5.6 -3.5 6.6 -4.6 1 -1.1 3.5 -2.6 5.5 -3.2 2 -0.7 5.2 -2.3 7.2 -3.6 3.3 -2.2 11.5 -4.8 27.4 -9 9.1 -2.3 28.7 -1.3 38.1 2 3.9 1.3 9 2.8 11.4 3.2 2.4 0.4 7.7 2.5 11.7 4.6 4.1 2.2 8 3.9 8.7 3.9 0.8 0 1.9 0.7 2.7 1.6 0.7 0.8 3.6 2.7 6.3 4.1 2.8 1.4 6 3.4 7.2 4.4 1.1 1.1 4.6 3.5 7.8 5.4 l5.7 3.4 3.6 -2.5 c2 -1.3 4.1 -2.4 4.7 -2.4 0.7 0 3.3 -1.4 6 -3 2.6 -1.7 7.7 -4 11.4 -5.3 6.6 -2.2 6.7 -2.2 7.5 -6.6 0.7 -3.7 0.6 -4.8 -1.2 -7 -1.1 -1.4 -3.3 -4.6 -4.8 -7.1 -4.6 -7.6 -18.8 -23.2 -31.3 -34.1 -5.4 -4.7 -17.1 -12.9 -18.5 -12.9 -0.6 0 -2.2 -1.1 -3.5 -2.5 -1.2 -1.3 -3.9 -3 -5.9 -3.6 -2 -0.6 -5.8 -2.4 -8.6 -3.9 -2.7 -1.6 -7.2 -3.4 -10 -4.1 -2.7 -0.6 -7.1 -2.3 -9.8 -3.6 -3 -1.5 -9.3 -3 -17.9 -4.3 -7.3 -1.1 -14.8 -2.5 -16.8 -3.1 -1.9 -0.6 -12 -1.3 -22.5 -1.6 -16.2 -0.4 -20.8 -0.2 -31 1.5 -6.6 1.2 -17.2 2.8 -23.6 3.6 -6.4 0.8 -14 2.5 -16.9 3.6 -3 1.2 -8.8 2.8 -12.9 3.7 -4.5 0.9 -9.3 2.6 -11.9 4.3 -2.3 1.5 -5.9 3.1 -8 3.5 -2 0.3 -5.3 1.9 -7.2 3.4 -1.9 1.5 -5.1 3.3 -7 4.1 -1.9 0.7 -4.6 2.3 -6 3.5 -1.4 1.3 -4.3 3.2 -6.6 4.3 -2.2 1.1 -4.6 2.8 -5.4 3.7 -0.8 0.9 -3 2.5 -5 3.5 -2 1 -4.3 2.6 -5.1 3.6 -0.8 0.9 -2.6 2.5 -4.1 3.4 -5.8 3.5 -30.1 26.8 -40.3 38.5 -2.2 2.5 -5.2 5.8 -6.6 7.3 -1.4 1.5 -3.4 4.2 -4.5 6 -1 1.7 -2.2 3.2 -2.6 3.2 -0.4 0 -1.9 2.1 -3.4 4.8 -1.5 2.6 -3.7 5.8 -4.9 7.2 -1.3 1.4 -3.1 4.1 -4 6 -1 1.9 -2.8 4.8 -4.1 6.3 -1.3 1.6 -2.4 3.4 -2.4 4.2 0 0.7 -1.6 3.5 -3.5 6.3 -1.9 2.8 -3.7 6.2 -4 7.5 -0.4 1.4 -2.2 4.9 -4.1 7.8 -1.9 2.9 -3.4 6.1 -3.4 7 0 1 -1.6 4.7 -3.5 8.3 -1.9 3.6 -4 8.7 -4.6 11.3 -0.6 2.7 -2.2 6.7 -3.5 9 -1.3 2.3 -3.1 7.3 -3.9 11.2 -0.8 3.9 -2.3 8.8 -3.3 10.9 -2.2 4.3 -2.7 6.3 -4.7 17.7 -0.8 4.6 -2.4 10.7 -3.5 13.5 -1.1 2.9 -2.7 11 -3.6 18.8 -0.8 7.5 -2.4 17.6 -3.5 22.4 -1 4.8 -2.4 14.3 -3.1 21 -1.5 16.5 -1.5 109.2 0.1 130.3 2.1 27.7 7.5 55.5 10.9 55.5 0.4 0 1.8 1.7 3 3.9 1.2 2.1 2.9 4.4 3.8 5.2 0.8 0.7 2.8 3.8 4.4 6.9 1.6 3.1 3.5 6.2 4.4 6.9 0.8 0.7 2 2.9 2.7 4.9 0.6 2 2.2 5.1 3.5 6.9 1.3 1.7 3.3 5.6 4.4 8.6 1.1 3 2.7 6 3.5 6.7 0.8 0.6 2.1 3.5 3.1 6.3 0.9 2.9 2.7 6.8 4 8.7 1.3 1.9 3.2 6.4 4.3 9.8 1.1 3.5 2.7 7.2 3.5 8.1 0.9 1 2.5 5 3.6 8.9 1.1 3.8 2.8 8.5 3.9 10.4 1.1 1.8 2.7 6.5 3.7 10.3 0.9 3.9 2.5 8.4 3.6 10.1 1 1.8 2.7 7.2 3.7 12 1.1 4.9 2.9 11 4 13.5 1.1 2.5 2.8 9 3.6 14.5 0.9 5.4 2.7 13.5 4 17.9 1.6 5.1 3 13.6 3.9 23.5 0.8 8.5 2.3 21.3 3.2 28.3 1.6 11.9 1.9 12.9 4.3 14.2 3.9 2.1 99.9 2.2 104 0.1z m280.2 -466.9 c3.5 -1.3 8.5 -3.2 11.2 -4.2 2.6 -0.9 5.3 -2.2 6 -2.9 0.7 -0.7 3.1 -2.5 5.5 -4 2.3 -1.4 4.2 -3 4.2 -3.6 0 -0.5 1.5 -2.4 3.4 -4.2 1.9 -1.8 4.2 -5.4 5.2 -7.8 0.9 -2.5 2.5 -5.7 3.5 -7.1 3.8 -5.5 5.7 -24.4 4 -40.4 -0.9 -8.8 -1.6 -11.2 -5.5 -19 -5 -9.9 -14.1 -20.2 -21.1 -23.7 -2.1 -1.1 -5.1 -2.9 -6.5 -3.9 -5.5 -4 -30.9 -6.1 -46.3 -3.8 -9.3 1.3 -13.5 2.7 -17.2 5.4 -1.6 1.3 -4 2.6 -5.2 2.9 -3.3 1 -17.1 16.5 -18.4 20.6 -0.6 1.9 -2.2 5.5 -3.6 7.8 -5.4 9.5 -5.4 42.1 0 51.5 1.3 2.3 3 5.9 3.7 8 1 3.3 5.8 10 10.2 14.5 3.4 3.4 12.7 9.4 16.1 10.3 2 0.5 5.9 1.9 8.5 3 7 3.1 12.5 3.8 24.8 3.4 8.8 -0.2 12.4 -0.8 17.5 -2.8z"/>
 </g>
</svg>